<?xml version="1.0" encoding="utf-8"?>
<svg viewBox="19 542.504 1503.322 327.967" xmlns="http://www.w3.org/2000/svg" xmlns:xlink="http://www.w3.org/1999/xlink">
  <defs>
    <linearGradient id="Dégradé_sans_nom_73" x1="392.76" y1="562.64" x2="1133.15" y2="562.64" gradientUnits="userSpaceOnUse">
      <stop offset="0" stop-color="#74c6d0"/>
      <stop offset="0.05" stop-color="#6bc3cc"/>
      <stop offset="0.24" stop-color="#47b6bb"/>
      <stop offset="0.39" stop-color="#32aeb1"/>
      <stop offset="0.49" stop-color="#2aabad"/>
      <stop offset="0.6" stop-color="#32aeb1"/>
      <stop offset="0.76" stop-color="#48b6bb"/>
      <stop offset="0.96" stop-color="#6cc3cc"/>
      <stop offset="1" stop-color="#74c6d0"/>
    </linearGradient>
    <linearGradient id="Dégradé_sans_nom_50" x1="752.42" y1="344.77" x2="752.42" y2="28.73" gradientUnits="userSpaceOnUse">
      <stop offset="0" stop-color="#652773"/>
      <stop offset="0.41" stop-color="#952d6b"/>
      <stop offset="1" stop-color="#b93066"/>
    </linearGradient>
    <radialGradient id="Dégradé_sans_nom_21" cx="927.23" cy="93.02" r="49.82" gradientUnits="userSpaceOnUse">
      <stop offset="0" stop-color="#522773"/>
      <stop offset="0.41" stop-color="#3d1f51"/>
      <stop offset="1" stop-color="#1a0a15"/>
    </radialGradient>
    <radialGradient id="Dégradé_sans_nom_21-2" cx="836.73" cy="52.38" r="49.82" xlink:href="#Dégradé_sans_nom_21"/>
    <radialGradient id="Dégradé_sans_nom_33" cx="946.81" cy="154.68" r="49.82" gradientUnits="userSpaceOnUse">
      <stop offset="0" stop-color="#5f1e57"/>
      <stop offset="0.41" stop-color="#43143a"/>
      <stop offset="1" stop-color="#1e0b16"/>
    </radialGradient>
    <radialGradient id="Dégradé_sans_nom_21-3" cx="773.93" cy="200.14" r="49.82" xlink:href="#Dégradé_sans_nom_21"/>
    <radialGradient id="Dégradé_sans_nom_21-4" cx="853.35" cy="109.64" r="49.82" xlink:href="#Dégradé_sans_nom_21"/>
    <radialGradient id="Dégradé_sans_nom_21-5" cx="555.99" cy="142.88" r="49.82" xlink:href="#Dégradé_sans_nom_21"/>
    <radialGradient id="Dégradé_sans_nom_21-7" cx="853.35" cy="194.6" r="49.82" xlink:href="#Dégradé_sans_nom_21"/>
    <radialGradient id="Dégradé_sans_nom_21-8" cx="631.74" cy="161.38" r="46.15" xlink:href="#Dégradé_sans_nom_21"/>
    <radialGradient id="Dégradé_sans_nom_21-9" cx="759.16" cy="50.54" r="49.82" xlink:href="#Dégradé_sans_nom_21"/>
    <radialGradient id="Dégradé_sans_nom_21-10" cx="935.85" cy="236.56" r="49.82" xlink:href="#Dégradé_sans_nom_21"/>
    <linearGradient id="Dégradé_sans_nom_60" x1="622.5" y1="470.89" x2="622.5" y2="287.45" gradientUnits="userSpaceOnUse">
      <stop offset="0" stop-color="#7c4787"/>
      <stop offset="1" stop-color="#a14b80"/>
    </linearGradient>
    <linearGradient id="Dégradé_sans_nom_60-2" x1="879.13" y1="512.96" x2="879.13" y2="260.16" xlink:href="#Dégradé_sans_nom_60"/>
  </defs>
  <g id="Calque_1" data-name="Calque 1" style="" transform="matrix(0.4704420268535614, 0, 0, 0.4704420268535614, -160.18478393554688, 544.50439453125)">
    <path d="M512.3,437.1s-.41,79.63,10.26,93.58,58.32,98.5,205.65,101,214.06-27.09,252.93-77.16,27.38-126.42,27.38-126.42,91.12,21.34,118.2,79.63-40.22,105.07-40.22,105.07S980.55,680.9,880,689.93s-209.7,14.78-306.56-14.78S420.78,605.38,406,582.4s-23-62.39,7.39-91.12S512.3,437.1,512.3,437.1Z" transform="translate(-4.1 -8.61)" style="fill:url(#Dégradé_sans_nom_73)"/>
    <path d="M522.56,460.91S647.34,534,736,534.78s192.67-19.7,267.89-73.87c0,0,10.39,96-107,131.34s-197,19.7-197,19.7-120.67-14.78-165-80.45C534.88,531.5,514.35,509.34,522.56,460.91Z" transform="translate(-4.1 -8.61)" style="fill:#e0ab77"/>
    <polygon points="508.21 183.05 518.47 458.87 569.36 510.58 776.19 565.58 921.51 529.54 985.66 477.75 999.79 452.3 1000.02 186.75 977.05 142.83 508.21 183.05" style="fill:#fff"/>
    <ellipse cx="752.42" cy="186.75" rx="244.21" ry="158.02" style="fill:url(#Dégradé_sans_nom_50)"/>
    <circle cx="927.23" cy="93.02" r="49.82" style="fill:url(#Dégradé_sans_nom_21)"/>
    <circle cx="836.73" cy="52.38" r="49.82" style="fill:url(#Dégradé_sans_nom_21-2)"/>
    <circle cx="946.81" cy="154.68" r="49.82" style="fill:url(#Dégradé_sans_nom_33)"/>
    <circle cx="773.93" cy="200.14" r="49.82" style="fill:url(#Dégradé_sans_nom_21-3)"/>
    <circle cx="853.35" cy="109.64" r="49.82" style="fill:url(#Dégradé_sans_nom_21-4)"/>
    <circle cx="875.92" cy="278.84" r="49.82" style="fill:#12070b"/>
    <circle cx="778.04" cy="121.85" r="49.82" style="fill:#12070b"/>
    <circle cx="700.46" cy="123.69" r="49.82" style="fill:#12070b"/>
    <circle cx="665.47" cy="44.37" r="44.37" style="fill:#12070b"/>
    <circle cx="701.44" cy="213.32" r="48.94" style="fill:#12070b"/>
    <circle cx="636.79" cy="259.5" r="48.94" style="fill:#12070b"/>
    <circle cx="562.92" cy="215.17" r="48.94" style="fill:#12070b"/>
    <circle cx="555.99" cy="142.88" r="49.82" style="fill:url(#Dégradé_sans_nom_21-5)"/>
    <circle cx="608.21" cy="92.39" r="44.37" style="fill:#12070b"/>
    <circle cx="773.93" cy="200.14" r="49.82" style="fill:url(#Dégradé_sans_nom_21-3)"/>
    <circle cx="853.35" cy="194.6" r="49.82" style="fill:url(#Dégradé_sans_nom_21-7)"/>
    <circle cx="631.74" cy="161.38" r="46.15" style="fill:url(#Dégradé_sans_nom_21-8)"/>
    <circle cx="759.16" cy="50.54" r="49.82" style="fill:url(#Dégradé_sans_nom_21-9)"/>
    <circle cx="935.85" cy="236.56" r="49.82" style="fill:url(#Dégradé_sans_nom_21-10)"/>
    <circle cx="796.51" cy="269.6" r="49.82" style="fill:#12070b"/>
    <circle cx="715.24" cy="295.46" r="49.82" style="fill:#12070b"/>
    <circle cx="914.54" cy="79.52" r="17.55" style="fill:#fff"/>
    <circle cx="949.7" cy="231.28" r="17.55" style="fill:#fff"/>
    <circle cx="779.47" cy="278.84" r="17.55" style="fill:#fff"/>
    <circle cx="611.86" cy="251.56" r="17.55" style="fill:#fff"/>
    <circle cx="615.55" cy="171.66" r="17.55" style="fill:#fff"/>
    <circle cx="768.73" cy="121.44" r="17.55" style="fill:#fff"/>
    <circle cx="850.81" cy="40.17" r="17.55" style="fill:#fff"/>
    <circle cx="594.31" cy="91.42" r="17.55" style="fill:#fff"/>
    <circle cx="590.62" cy="90.55" r="15.7" style="fill:#20080f"/>
    <circle cx="852.66" cy="38.33" r="15.7" style="fill:#20080f"/>
    <circle cx="911.89" cy="77.57" r="15.7" style="fill:#20080f"/>
    <circle cx="951.55" cy="229.02" r="15.7" style="fill:#20080f"/>
    <circle cx="776.19" cy="280.69" r="15.7" style="fill:#20080f"/>
    <circle cx="610.01" cy="250.67" r="15.7" style="fill:#20080f"/>
    <circle cx="615.55" cy="173.51" r="15.7" style="fill:#20080f"/>
    <circle cx="766.88" cy="119.74" r="15.7" style="fill:#20080f"/>
    <path d="M522.56,287.45s50.9,79.06,199.89,92.6c0,0-18.06,77.57-21.35,82.5s-15.59,16-26.68,0c0,0-30.37-46.79-31.19-51.72S635,396.88,622.5,394s-28.07,4.51-41.64-8.62S526.91,347.54,522.56,287.45Z" transform="translate(-4.1 -8.61)" style="fill:url(#Dégradé_sans_nom_60)"/>
    <path d="M754.38,383.33s32.91,114.93,36,119.85,12.11,19.29,26.07,0,27.49-76.34,29.14-89.47,8.14-18.47,11.87-18.88,12.33,7,15,14.77S889.9,445.24,894,448.15s14.77,3.32,20.11-13.92,12.72-49.25,19.29-62.8S966.65,333.88,974,328s32.84-30.15,29.55-67.87c0,0-31.6,52.58-45.14,60S920.69,351.32,887,362,775.63,384.57,754.38,383.33Z" transform="translate(-4.1 -8.61)" style="fill:url(#Dégradé_sans_nom_60-2)"/>
  </g>
  <g id="Calque_2" data-name="Calque 2" transform="matrix(0.7593709826469421, 0, 0, 0.7593709826469421, 361, 45.20198059082031)" style="">
    <path d="M4.1,767h21v51.25H57.9V835H4.1Z" transform="translate(-4.1 -8.61)" style="fill:#6a2f79"/>
    <path d="M109.27,823.77H85.41L82.1,835H60.64L86.2,767h22.92l25.55,68h-22Zm-4.36-14.7L97.4,784.62,90,809.07Z" transform="translate(-4.1 -8.61)" style="fill:#6a2f79"/>
    <path d="M172.8,767h27.64l10.66,41.37L221.68,767H249.3v68H232.09V783.14L218.83,835H203.25L190,783.14V835H172.8Z" transform="translate(-4.1 -8.61)" style="fill:#6a2f79"/>
    <path d="M304.51,823.77H280.65L277.34,835H255.88l25.56-68h22.92l25.56,68h-22Zm-4.36-14.7-7.51-24.45-7.42,24.45Z" transform="translate(-4.1 -8.61)" style="fill:#6a2f79"/>
    <path d="M337.43,767h21.06v68H337.43Z" transform="translate(-4.1 -8.61)" style="fill:#6a2f79"/>
    <path d="M369.9,812.5l20-1.25a15.3,15.3,0,0,0,2.65,7.42q3.24,4.13,9.28,4.13c3,0,5.31-.7,6.93-2.11a6.35,6.35,0,0,0,2.44-4.89,6.28,6.28,0,0,0-2.32-4.74q-2.33-2.09-10.77-3.94-13.82-3.11-19.71-8.25a16.62,16.62,0,0,1-5.94-13.13,17.89,17.89,0,0,1,3-9.91,20.23,20.23,0,0,1,9.14-7.33q6.11-2.65,16.72-2.66,13,0,19.88,4.84t8.14,15.43l-19.81,1.16c-.52-3.06-1.63-5.29-3.31-6.68a10.69,10.69,0,0,0-7-2.09,8.47,8.47,0,0,0-5.52,1.55,4.79,4.79,0,0,0-1.85,3.79,3.79,3.79,0,0,0,1.53,2.92q1.49,1.35,7.05,2.5,13.77,3,19.74,6a20.79,20.79,0,0,1,8.67,7.54,19.09,19.09,0,0,1,2.72,10.06A21.58,21.58,0,0,1,428,824.93a22.68,22.68,0,0,1-10.11,8.38q-6.5,2.85-16.38,2.85-17.36,0-24-6.68A26.36,26.36,0,0,1,369.9,812.5Z" transform="translate(-4.1 -8.61)" style="fill:#6a2f79"/>
    <path d="M439.53,801q0-16.65,9.28-25.92t25.83-9.28q17,0,26.16,9.11T510,800.49q0,11.93-4,19.55a28.62,28.62,0,0,1-11.6,11.88q-7.59,4.25-18.9,4.24-11.5,0-19-3.66a28.73,28.73,0,0,1-12.23-11.6Q439.53,813,439.53,801Zm21,.1q0,10.29,3.83,14.8a13,13,0,0,0,10.41,4.49q6.78,0,10.49-4.4T489,800.21q0-9.6-3.88-14a13.24,13.24,0,0,0-10.5-4.43,12.77,12.77,0,0,0-10.21,4.5Q460.54,790.75,460.54,801.14Z" transform="translate(-4.1 -8.61)" style="fill:#6a2f79"/>
    <path d="M521.45,767h19.62l25.6,37.62V767h19.81v68H566.67l-25.46-37.34V835H521.45Z" transform="translate(-4.1 -8.61)" style="fill:#6a2f79"/>
    <path d="M632.4,767h31.22q9.24,0,14.92,2.5a24.37,24.37,0,0,1,9.39,7.19,29.86,29.86,0,0,1,5.38,10.9A50.8,50.8,0,0,1,695,800.77q0,10.89-2.48,16.9a28,28,0,0,1-6.89,10.07,22.36,22.36,0,0,1-9.46,5.4A48.7,48.7,0,0,1,663.62,835H632.4Zm21,15.4v37.15h5.15c4.39,0,7.51-.48,9.37-1.46a9.94,9.94,0,0,0,4.36-5.1q1.58-3.65,1.57-11.81,0-10.8-3.52-14.79t-11.69-4Z" transform="translate(-4.1 -8.61)" style="fill:#6a2f79"/>
    <path d="M750.27,767h21v40.51a34.18,34.18,0,0,1-1.88,11.38,24.68,24.68,0,0,1-5.89,9.37,23.54,23.54,0,0,1-8.42,5.63,42.44,42.44,0,0,1-14.7,2.27,91.43,91.43,0,0,1-10.84-.7,28.4,28.4,0,0,1-9.81-2.75,24.54,24.54,0,0,1-7.21-5.87A21.58,21.58,0,0,1,708,819a40.91,40.91,0,0,1-1.94-11.5V767h21v41.48q0,5.55,3.09,8.69c2,2.08,4.91,3.12,8.56,3.12s6.45-1,8.51-3.08,3.08-5,3.08-8.73Z" transform="translate(-4.1 -8.61)" style="fill:#6a2f79"/>
    <path d="M862.11,807.17l18.42,5.56a34,34,0,0,1-5.85,12.95,25.48,25.48,0,0,1-9.9,7.84c-3.95,1.76-9,2.64-15.06,2.64q-11.09,0-18.11-3.22T819.48,821.6q-5.1-8.1-5.1-20.76,0-16.87,9-25.94t25.4-9.06q12.86,0,20.2,5.19t10.93,16l-18.56,4.13a16,16,0,0,0-2-4.55,12.06,12.06,0,0,0-4.31-3.71,12.49,12.49,0,0,0-5.71-1.3,12.36,12.36,0,0,0-11,5.75q-2.87,4.26-2.87,13.39,0,11.29,3.43,15.5t9.65,4.19q6,0,9.11-3.39T862.11,807.17Z" transform="translate(-4.1 -8.61)" style="fill:#6a2f79"/>
    <path d="M890.82,767h21v23.79h23V767h21.1v68H934.8V807.49h-23V835h-21Z" transform="translate(-4.1 -8.61)" style="fill:#6a2f79"/>
    <path d="M969.82,767h56.31v14.52H990.88v10.8h32.7v13.87h-32.7V819.6h36.28V835H969.82Z" transform="translate(-4.1 -8.61)" style="fill:#6a2f79"/>
    <path d="M1038.43,767h56.31v14.52h-35.25v10.8h32.7v13.87h-32.7V819.6h36.27V835h-57.33Z" transform="translate(-4.1 -8.61)" style="fill:#6a2f79"/>
    <path d="M1103.41,812.5l20-1.25a15.2,15.2,0,0,0,2.64,7.42q3.26,4.13,9.28,4.13,4.5,0,6.93-2.11a6.31,6.31,0,0,0,2.44-4.89,6.25,6.25,0,0,0-2.32-4.74q-2.33-2.09-10.76-3.94-13.83-3.11-19.72-8.25a16.61,16.61,0,0,1-5.93-13.13,17.88,17.88,0,0,1,3-9.91,20.28,20.28,0,0,1,9.14-7.33q6.1-2.65,16.73-2.66,13,0,19.87,4.84t8.14,15.43l-19.8,1.16q-.8-4.59-3.32-6.68a10.66,10.66,0,0,0-7-2.09,8.43,8.43,0,0,0-5.52,1.55,4.77,4.77,0,0,0-1.86,3.79,3.79,3.79,0,0,0,1.53,2.92q1.48,1.35,7,2.5,13.79,3,19.74,6a20.83,20.83,0,0,1,8.68,7.54,19.17,19.17,0,0,1,2.71,10.06,21.58,21.58,0,0,1-3.62,12.06,22.62,22.62,0,0,1-10.11,8.38q-6.5,2.85-16.38,2.85-17.34,0-24-6.68A26.32,26.32,0,0,1,1103.41,812.5Z" transform="translate(-4.1 -8.61)" style="fill:#6a2f79"/>
    <path d="M1175.64,767H1232v14.52H1196.7v10.8h32.7v13.87h-32.7V819.6H1233V835h-57.33Z" transform="translate(-4.1 -8.61)" style="fill:#6a2f79"/>
    <path d="M1289.56,807.17l18.42,5.56a34.19,34.19,0,0,1-5.84,12.95,25.51,25.51,0,0,1-9.91,7.84q-5.91,2.64-15,2.64-11.09,0-18.11-3.22t-12.14-11.34q-5.1-8.1-5.1-20.76,0-16.87,9-25.94t25.4-9.06q12.84,0,20.2,5.19t10.92,16l-18.55,4.13a16,16,0,0,0-2-4.55,12.17,12.17,0,0,0-4.32-3.71,13.25,13.25,0,0,0-16.65,4.45q-2.88,4.26-2.88,13.39,0,11.29,3.44,15.5t9.64,4.19q6,0,9.12-3.39C1287.14,814.75,1288.64,811.47,1289.56,807.17Z" transform="translate(-4.1 -8.61)" style="fill:#6a2f79"/>
    <path d="M1360,823.77h-23.85L1332.82,835h-21.45l25.55-68h22.93l25.55,68h-22Zm-4.36-14.7-7.5-24.45-7.43,24.45Z" transform="translate(-4.1 -8.61)" style="fill:#6a2f79"/>
    <path d="M1392.17,767h21v25.7l22-25.7h27.94l-24.81,25.67L1464.26,835h-25.88L1424,807l-10.85,11.38V835h-21Z" transform="translate(-4.1 -8.61)" style="fill:#6a2f79"/>
    <path d="M1471.17,767h56.31v14.52h-35.25v10.8h32.7v13.87h-32.7V819.6h36.27V835h-57.33Z" transform="translate(-4.1 -8.61)" style="fill:#6a2f79"/>
  </g>
  <g id="Calque_3" data-name="Calque 3" transform="matrix(0.7593709826469421, 0, 0, 0.7593709826469421, 361, 45.20198059082031)" style="">
    <path d="M293.5,952.72,296,952q14.65-4.51,21-4.51,4.76,0,4.76,3.55a3.42,3.42,0,0,1-1.08,2.48,3.35,3.35,0,0,1-2.41,1.08,14,14,0,0,1-1.85-.19,8.94,8.94,0,0,0-1.65-.19,38.35,38.35,0,0,0-9.83,1.71q-2.24.71-8.57,3.56a18.29,18.29,0,0,1-7,1.9,3.78,3.78,0,0,1-3.23-1.84,6.15,6.15,0,0,1-1.21-3.62c0-1.56.87-4.21,2.6-7.93a230.47,230.47,0,0,1,17-31q13-19.68,20.19-28.88,2-2.48,3.94-5,3.11-4.19,5.39-4.19a2.8,2.8,0,0,1,2,.89,2.73,2.73,0,0,1,.83,1.84q0,1.39-2.16,4.32-.45.57-5.27,6.92-9,11.86-13.42,18.15t-9.43,14.54Q296.86,941.74,293.5,952.72Z" transform="translate(-4.1 -8.61)" style="fill:#3cb4bc"/>
    <path d="M345,947.58a48.57,48.57,0,0,1-4.13,6.22q-4,5-7.93,5a5.9,5.9,0,0,1-5.33-3.24,9.71,9.71,0,0,1-1.21-5q0-7,4.44-15.55a41.05,41.05,0,0,1,11.94-14.54,15.17,15.17,0,0,1,8.82-3.3,6.26,6.26,0,0,1,4.44,1.65,4.45,4.45,0,0,1,1.53,3.3,10.57,10.57,0,0,1-1.08,3.87,4.29,4.29,0,0,1,1,2.35q0,1.33-1.78,4.38A50.26,50.26,0,0,0,352,941a27.56,27.56,0,0,0-2,8.76,6.18,6.18,0,0,0,1.59,4.38,11.54,11.54,0,0,0,2.6,1.46,2.72,2.72,0,0,1,1.59,2.67,2.49,2.49,0,0,1-.89,2,3.26,3.26,0,0,1-2.22.82,7.38,7.38,0,0,1-5.9-3,9.49,9.49,0,0,1-2-6.23C344.79,950.92,344.87,949.52,345,947.58ZM353,926.69a6.06,6.06,0,0,0-1.65-2.06,3.06,3.06,0,0,0-1.9-.67q-4.83,0-10.47,8.44-6.22,9.33-6.23,15.81a4,4,0,0,0,.61,2.41,2.09,2.09,0,0,0,1.81.83q3,0,7.11-6.48a109.67,109.67,0,0,0,5.65-10.47,58.25,58.25,0,0,1,3.23-6A9.21,9.21,0,0,1,353,926.69Z" transform="translate(-4.1 -8.61)" style="fill:#3cb4bc"/>
    <path d="M403.44,936.91a91.29,91.29,0,0,1,9.39-8.76q6.17-4.75,8.25-4.76a2.43,2.43,0,0,1,1.78.76,2.13,2.13,0,0,1,.7,1.53q0,1.2-2.22,3.93a35.44,35.44,0,0,0-4.76,7.36q14.85-14.91,20.31-14.91a2.93,2.93,0,0,1,2,.7,2.4,2.4,0,0,1,.89,1.9q0,1.79-2.73,4.57-12,12.38-12,20.31c0,2.16.38,3.71,1.14,4.64l1.65,2.09a2.11,2.11,0,0,1,.51,1.46,2.82,2.82,0,0,1-.82,1.91,2.93,2.93,0,0,1-2.16,1q-2.1,0-3.88-2.66a13.08,13.08,0,0,1-2.15-7.49,23.76,23.76,0,0,1,3.3-11.68,46.81,46.81,0,0,1,3.81-5.59,61.41,61.41,0,0,0-11,11.17,65.77,65.77,0,0,0-6.85,10.79q-1.47,2.87-3.43,2.86c-1.44,0-2.16-.8-2.16-2.41s1.19-5.31,3.56-10.73a97,97,0,0,1,5-9.78q-10.85,8.39-16.31,22.73c-.89,2.11-2.07,3.17-3.56,3.17a2.06,2.06,0,0,1-1.65-.76,2.65,2.65,0,0,1-.69-1.84q0-3.75,4.19-13.52a111.52,111.52,0,0,1,9.9-18.6c2.54-3.85,4.5-5.78,5.9-5.78s1.91.68,1.91,2c0,.59-.79,2.07-2.35,4.44A77.88,77.88,0,0,0,403.44,936.91Z" transform="translate(-4.1 -8.61)" style="fill:#3cb4bc"/>
    <path d="M457.33,947.58a48.57,48.57,0,0,1-4.13,6.22q-4,5-7.93,5a5.9,5.9,0,0,1-5.33-3.24,9.71,9.71,0,0,1-1.21-5q0-7,4.44-15.55a41.05,41.05,0,0,1,11.94-14.54,15.17,15.17,0,0,1,8.82-3.3,6.26,6.26,0,0,1,4.44,1.65,4.45,4.45,0,0,1,1.53,3.3,10.57,10.57,0,0,1-1.08,3.87,4.29,4.29,0,0,1,.95,2.35q0,1.33-1.78,4.38a50.26,50.26,0,0,0-3.68,8.25,27.56,27.56,0,0,0-2,8.76,6.18,6.18,0,0,0,1.59,4.38,11.54,11.54,0,0,0,2.6,1.46,2.72,2.72,0,0,1,1.59,2.67,2.49,2.49,0,0,1-.89,2A3.26,3.26,0,0,1,465,961a7.38,7.38,0,0,1-5.9-3,9.49,9.49,0,0,1-2-6.23C457.08,950.92,457.16,949.52,457.33,947.58Zm7.93-20.89a6.06,6.06,0,0,0-1.65-2.06,3.06,3.06,0,0,0-1.9-.67q-4.83,0-10.47,8.44Q445,941.73,445,948.21a4,4,0,0,0,.61,2.41,2.09,2.09,0,0,0,1.81.83q3,0,7.11-6.48a109.67,109.67,0,0,0,5.65-10.47,58.25,58.25,0,0,1,3.23-6A9.49,9.49,0,0,1,465.26,926.69Z" transform="translate(-4.1 -8.61)" style="fill:#3cb4bc"/>
    <path d="M483.86,937.17a123.21,123.21,0,0,1,14.35-13,59.16,59.16,0,0,1,6.22-4.25,6.4,6.4,0,0,1,2.09-.95c.64,0,1.27.46,1.91,1.39a2.43,2.43,0,0,1,.57,1.4c0,.76-.81,1.8-2.41,3.11q-6.48,5.14-6.48,7.74c0,1,.55,1.46,1.65,1.46q2.73,0,9.4-4.5a3.65,3.65,0,0,1,1.9-.76,1.49,1.49,0,0,1,1,.5,1.71,1.71,0,0,1,.57,1.21q0,1.9-5.33,5.84-5.6,4.18-10.6,4.19a6.88,6.88,0,0,1-3.75-1.08,3.41,3.41,0,0,1-1.46-3.17,6.88,6.88,0,0,1,1.33-3.62q-5,3.55-11.8,12.19A87.16,87.16,0,0,0,475.23,958c-1,1.94-2.18,2.92-3.62,2.92s-2.35-.74-2.35-2.23,1.23-5.29,3.68-11.55q5.46-14,11.43-21.64c2.45-3.18,4.51-4.77,6.16-4.77a2.53,2.53,0,0,1,1.52.51,1.94,1.94,0,0,1,.83,1.59,5.31,5.31,0,0,1-1.27,2.67l-3.37,4.25A33.69,33.69,0,0,0,483.86,937.17Z" transform="translate(-4.1 -8.61)" style="fill:#3cb4bc"/>
    <path d="M538.07,930.88q-4.12,10.22-4.12,15.55a8.32,8.32,0,0,0,1,4.32,3.81,3.81,0,0,0,3.37,2.16q4.3,0,10-5.78a47.63,47.63,0,0,0,6.29-7.49c1.1-1.69,2.13-2.54,3.11-2.54a1.29,1.29,0,0,1,1.46,1.46q0,2.41-5.84,9.9-8.64,11.12-16.76,11.11c-3.26,0-5.57-1.58-6.92-4.76a18.14,18.14,0,0,1-1.52-7.36,44.88,44.88,0,0,1,1.52-9.59q-4.12,3.43-12.51,16.76-2.22,3.61-4.06,3.62a2.12,2.12,0,0,1-1.65-.83,2.89,2.89,0,0,1-.7-1.77q0-2.55,6.67-16.95,11.75-25.2,25.13-42.4,7.25-9.4,13-13.71,5.21-3.95,8.31-3.94a3.33,3.33,0,0,1,2.48,1.14,4.67,4.67,0,0,1,1.39,3.43q0,5.4-5.64,13.84-5.91,8.7-20.06,21a115.08,115.08,0,0,1-14.29,10.79q-.83,1.65-4.63,9.65,7.93-8.57,12.57-11.81a51,51,0,0,1,8.06-4.25,15,15,0,0,1,4.95-1.46,2,2,0,0,1,1.46.63,1.86,1.86,0,0,1,.7,1.53c0,1.39-1,2.37-2.86,2.92A38.13,38.13,0,0,0,538.07,930.88ZM532.61,920A92.29,92.29,0,0,0,552,902.51a63.46,63.46,0,0,0,7.23-10.16q1.9-3.42,1.91-4.89c0-1-.45-1.46-1.34-1.46q-3.55,0-12.25,10.92A176.83,176.83,0,0,0,532.61,920Z" transform="translate(-4.1 -8.61)" style="fill:#3cb4bc"/>
    <path d="M563.21,945.86V947a4.13,4.13,0,0,0,.7,2.42c1.05,1.56,2.79,2.34,5.2,2.34q7.93,0,18.35-12.18c1.22-1.4,2.26-2.1,3.11-2.1a1.84,1.84,0,0,1,1.65,1.65q0,2.48-6.1,8.38A46,46,0,0,1,576,955.07a21.36,21.36,0,0,1-10,2.92,9.17,9.17,0,0,1-7.49-3.31,9.6,9.6,0,0,1-1.84-6.22q0-10.73,10.09-21,8.19-8.37,14.28-8.38a4.76,4.76,0,0,1,3,1,4.28,4.28,0,0,1,1.66,3.49c0,2.24-1,5-3.12,8.25Q576.1,942,563.21,945.86Zm1.39-5a25.68,25.68,0,0,0,7-3.43,28,28,0,0,0,7-7.74,5.27,5.27,0,0,0,1-2.73c0-.85-.4-1.27-1.2-1.27q-1.65,0-4.7,2.47Q568.22,932.59,564.6,940.91Z" transform="translate(-4.1 -8.61)" style="fill:#3cb4bc"/>
    <path d="M617.16,917.17a102.58,102.58,0,0,0-7.61,14.35q-5,11.29-5,16.88a3.72,3.72,0,0,0,.67,2.41,2.41,2.41,0,0,0,2,.83q3.16,0,7.68-6a79,79,0,0,0,5.08-7.36c.8-1.4,1.67-2.1,2.6-2.1a1.92,1.92,0,0,1,1.4.57,1.8,1.8,0,0,1,.5,1.15q0,2.34-6.15,10.47-7.37,9.78-13.46,9.78a6.46,6.46,0,0,1-5.4-3,9.31,9.31,0,0,1-1.33-5.39q0-7.68,4.44-17.9,1.08-2.55,6-12.25a11.64,11.64,0,0,1-2.6.44,4.37,4.37,0,0,1-2.35-.63,2.62,2.62,0,0,1-1.4-2.23,2.88,2.88,0,0,1,1.84-2.54,31.67,31.67,0,0,1,4.7-.82,32.5,32.5,0,0,0,4.44-1.21,115.89,115.89,0,0,1,7.24-10.85,62.24,62.24,0,0,1,3.87-4.95,4.15,4.15,0,0,1,2.67-1.59,2.33,2.33,0,0,1,1.65.89,2.44,2.44,0,0,1,.76,1.65q0,1.65-3.55,6.54a60,60,0,0,0-3.5,5.14q7.05-1.9,10.1-1.91c2.32,0,3.49,1,3.49,2.92a2.31,2.31,0,0,1-1.21,2.16,10,10,0,0,1-3.3.64q-1.08-.06-9.58,2.41C620.23,916.18,618.69,916.66,617.16,917.17Z" transform="translate(-4.1 -8.61)" style="fill:#3cb4bc"/>
    <path d="M644,924.34q2.61-1.65,3.87-2.28a11.52,11.52,0,0,1,5.08-1.27,5.23,5.23,0,0,1,4.19,1.62,7.25,7.25,0,0,1,1.4,4.85q0,4.46-3.11,10.67a45.88,45.88,0,0,1-11.68,15.49q-5.78,4.76-10.86,4.76a8.86,8.86,0,0,1-5.52-2.16,387.37,387.37,0,0,0-15.55,35.86q-1.47,4.38-3.43,4.38a2.54,2.54,0,0,1-1.9-1.27,3.09,3.09,0,0,1-.7-2q0-3.42,8.38-22.28,12.95-29.07,24.56-48.3,2.42-4.07,3.24-5.59,2.22-4.12,4.32-4.12c1.43,0,2.15.86,2.15,2.6a8.26,8.26,0,0,1-1.52,3.93Q645,922.44,644,924.34Zm-14.28,26.35a4.63,4.63,0,0,0,3.49,1.46q5.9,0,13.08-10.48a39.38,39.38,0,0,0,4.25-7.93,15.15,15.15,0,0,0,1.27-4.89,2.4,2.4,0,0,0-.54-1.71,2.18,2.18,0,0,0-1.68-.58c-2,0-4.43,1.38-7.3,4.13a44.19,44.19,0,0,0-7.94,11.24Q630.81,948.59,629.67,950.69Z" transform="translate(-4.1 -8.61)" style="fill:#3cb4bc"/>
    <path d="M670.36,937c-1.27,3.31-2.23,6-2.86,8a17.3,17.3,0,0,0-1,4.26,1.37,1.37,0,0,0,1.52,1.58q2.28,0,5.9-4.31a77,77,0,0,0,5.08-7.56c.89-1.44,1.82-2.16,2.8-2.16s1.65.53,1.65,1.59q0,2.73-6.29,11-6.54,8.69-12.12,8.69a4.7,4.7,0,0,1-3.94-2,5.8,5.8,0,0,1-1.08-3.55,32.68,32.68,0,0,1,2.16-9.84,157,157,0,0,1,6.41-15.3q10.92-22.92,22.28-37.77Q700,877.7,706,877.69a3.84,3.84,0,0,1,3.11,1.46,5,5,0,0,1,1.27,3.36q0,8.9-15.87,29.58a153.33,153.33,0,0,1-17,18.41Q674.86,932.92,670.36,937Zm4.5-10.09a115.91,115.91,0,0,0,23.62-28.56q5.38-9,5.39-11.87c0-.93-.4-1.4-1.2-1.4q-3.49,0-12.7,13.9A199.59,199.59,0,0,0,674.86,926.88Z" transform="translate(-4.1 -8.61)" style="fill:#3cb4bc"/>
    <path d="M706.54,947.58a48.57,48.57,0,0,1-4.13,6.22q-4,5-7.93,5a5.9,5.9,0,0,1-5.33-3.24,9.71,9.71,0,0,1-1.21-5q0-7,4.44-15.55a41.05,41.05,0,0,1,11.94-14.54,15.14,15.14,0,0,1,8.82-3.3,6.26,6.26,0,0,1,4.44,1.65,4.45,4.45,0,0,1,1.53,3.3A10.57,10.57,0,0,1,718,926a4.29,4.29,0,0,1,1,2.35q0,1.33-1.78,4.38a49.42,49.42,0,0,0-3.68,8.25,27.56,27.56,0,0,0-2,8.76,6.18,6.18,0,0,0,1.59,4.38,11.54,11.54,0,0,0,2.6,1.46,2.72,2.72,0,0,1,1.59,2.67,2.49,2.49,0,0,1-.89,2,3.28,3.28,0,0,1-2.22.82,7.38,7.38,0,0,1-5.9-3,9.49,9.49,0,0,1-2-6.23C706.28,950.92,706.37,949.52,706.54,947.58Zm7.93-20.89a6.31,6.31,0,0,0-1.65-2.06,3.08,3.08,0,0,0-1.9-.67q-4.83,0-10.48,8.44-6.21,9.33-6.22,15.81a4,4,0,0,0,.61,2.41,2.09,2.09,0,0,0,1.81.83q3,0,7.11-6.48a107.78,107.78,0,0,0,5.64-10.47,57.69,57.69,0,0,1,3.24-6A9.21,9.21,0,0,1,714.47,926.69Z" transform="translate(-4.1 -8.61)" style="fill:#3cb4bc"/>
    <path d="M744.5,918.69q5,0,5,5.27a15.25,15.25,0,0,1-3.62,9.33q-2.79,3.56-4.88,3.56c-1.19,0-1.78-.68-1.78-2a2.69,2.69,0,0,1,.51-1.72,18,18,0,0,1,1.52-1.46,14,14,0,0,0,2.35-3.23,5.22,5.22,0,0,0,.82-2.35q0-1-1.14-1-1.34,0-4.06,2.1-4.32,3.36-8.63,10.53-4.46,7.5-4.45,11.81A4,4,0,0,0,727,952a3.8,3.8,0,0,0,3.23,1.65q4,0,9.46-5a62.2,62.2,0,0,0,7.81-8.5c1.1-1.57,2-2.35,2.86-2.35a1.7,1.7,0,0,1,1.27.63,2.09,2.09,0,0,1,.5,1.27q0,2.35-6,9.14-9.58,10.67-17.39,10.67a8.34,8.34,0,0,1-7.17-3.37,9.7,9.7,0,0,1-1.78-5.84q0-6.6,5.46-15.29a48.46,48.46,0,0,1,12.19-13.4C740.1,919.67,742.47,918.69,744.5,918.69Z" transform="translate(-4.1 -8.61)" style="fill:#3cb4bc"/>
    <path d="M762,945.86V947a4.2,4.2,0,0,0,.69,2.42q1.59,2.34,5.21,2.34,7.94,0,18.34-12.18,1.85-2.1,3.12-2.1a1.64,1.64,0,0,1,1.26.7,1.61,1.61,0,0,1,.39,1q0,2.48-6.1,8.38a46,46,0,0,1-10.15,7.56,21.39,21.39,0,0,1-10,2.92,9.17,9.17,0,0,1-7.49-3.31,9.6,9.6,0,0,1-1.84-6.22q0-10.73,10.09-21,8.19-8.37,14.28-8.38a4.78,4.78,0,0,1,3,1,4.27,4.27,0,0,1,1.65,3.49c0,2.24-1,5-3.11,8.25Q774.91,942,762,945.86Zm1.39-5a25.68,25.68,0,0,0,7-3.43,28,28,0,0,0,7-7.74,5.27,5.27,0,0,0,.95-2.73c0-.85-.4-1.27-1.2-1.27q-1.65,0-4.7,2.47Q767,932.59,763.41,940.91Z" transform="translate(-4.1 -8.61)" style="fill:#3cb4bc"/>
    <path d="M850.82,921q6.34-13.28,12-23.11a125.79,125.79,0,0,1,7.42-12q2.16-2.73,4.07-2.73a2.7,2.7,0,0,1,2.6,2.6q0,1.46-2.16,4.89-9.21,14.85-16.88,30.15Q849,938.63,849,947.51a10.09,10.09,0,0,0,1.4,5.71,12.19,12.19,0,0,0,2.28,2,1.59,1.59,0,0,1,.38,1.27,3.33,3.33,0,0,1-1,2.31,3,3,0,0,1-2.19,1,4.91,4.91,0,0,1-3.24-1.78,10.36,10.36,0,0,1-3-5.84c-.12-.93-.27-2.66-.44-5.2q-6.66,12-12.7,12c-2.32,0-4.19-1.31-5.58-3.93a12.3,12.3,0,0,1-1.4-5.9q0-9.91,7.24-19.94t15.42-9.9A8.54,8.54,0,0,1,850.82,921Zm-2.16,5.2a5.65,5.65,0,0,0-3-1.14q-5.34,0-10.09,6.54-6.29,8.5-6.29,16.44a4.28,4.28,0,0,0,.38,1.78,2.43,2.43,0,0,0,2.29,1.58c1.48,0,3.28-1.43,5.39-4.31a76.21,76.21,0,0,0,7.87-13.52q1.28-2.67,2.48-5.34l.57-1.2Z" transform="translate(-4.1 -8.61)" style="fill:#3cb4bc"/>
    <path d="M864.15,945.86V947a4.13,4.13,0,0,0,.7,2.42q1.59,2.34,5.2,2.34,7.94,0,18.35-12.18c1.22-1.4,2.26-2.1,3.11-2.1a1.84,1.84,0,0,1,1.65,1.65q0,2.48-6.09,8.38a46.08,46.08,0,0,1-10.16,7.56,21.36,21.36,0,0,1-10,2.92,9.18,9.18,0,0,1-7.49-3.31,9.6,9.6,0,0,1-1.84-6.22q0-10.73,10.09-21,8.19-8.37,14.28-8.38a4.81,4.81,0,0,1,3,1,4.27,4.27,0,0,1,1.65,3.49c0,2.24-1,5-3.11,8.25Q877,942,864.15,945.86Zm1.4-5a25.6,25.6,0,0,0,7-3.43,28.2,28.2,0,0,0,7.05-7.74,5.37,5.37,0,0,0,.95-2.73c0-.85-.41-1.27-1.21-1.27-1.1,0-2.66.82-4.7,2.47Q869.16,932.59,865.55,940.91Z" transform="translate(-4.1 -8.61)" style="fill:#3cb4bc"/>
    <path d="M924,915.9a10.21,10.21,0,0,1,5.9,1.4,4.87,4.87,0,0,1,2,4.25,11.48,11.48,0,0,1-2.79,7.24,18.54,18.54,0,0,1-8,5.33,14.7,14.7,0,0,1-4.89,1.08c-1.78,0-2.66-.78-2.66-2.35a2.6,2.6,0,0,1,1.52-2.41,42.11,42.11,0,0,1,4.32-1.08,9.64,9.64,0,0,0,4.31-2.22,4.22,4.22,0,0,0,1.72-3.18,2.43,2.43,0,0,0-.77-2,3.5,3.5,0,0,0-2.28-.63c-2.46,0-5.16,1-8.13,3q-5.13,3.38-5.14,8,0,3.3,3.37,8.25,3.74,5.4,3.74,9.14a9.88,9.88,0,0,1-5,8.76,12.41,12.41,0,0,1-6.92,2q-6.09,0-9.27-4.38a12.34,12.34,0,0,1-2.22-7.36,13.45,13.45,0,0,1,2.54-8.32c1.1-1.48,2.24-2.22,3.43-2.22s1.59.42,1.59,1.27a3.47,3.47,0,0,1-.58,1.52,13.45,13.45,0,0,0-1.46,6.41,7,7,0,0,0,2.23,5.27,6.29,6.29,0,0,0,4.5,1.91,4.79,4.79,0,0,0,3.87-1.65,5.4,5.4,0,0,0,1.15-3.56q0-2.65-3.05-6.92-4.18-5.83-4.19-10.6,0-6.35,6.92-11.23A24.45,24.45,0,0,1,924,915.9Z" transform="translate(-4.1 -8.61)" style="fill:#3cb4bc"/>
    <path d="M986,921q6.35-13.28,12-23.11a125.09,125.09,0,0,1,7.43-12q2.16-2.73,4.06-2.73a2.54,2.54,0,0,1,1.84.82,2.57,2.57,0,0,1,.76,1.78q0,1.46-2.15,4.89-9.21,14.85-16.89,30.15-8.88,17.84-8.89,26.72a10.17,10.17,0,0,0,1.4,5.71,12.42,12.42,0,0,0,2.29,2,1.63,1.63,0,0,1,.38,1.27,3.3,3.3,0,0,1-1,2.31,2.93,2.93,0,0,1-2.19,1,4.89,4.89,0,0,1-3.23-1.78,10.3,10.3,0,0,1-3.05-5.84c-.13-.93-.28-2.66-.45-5.2q-6.66,12-12.69,12-3.49,0-5.59-3.93a12.3,12.3,0,0,1-1.39-5.9q0-9.91,7.23-19.94t15.43-9.9A8.56,8.56,0,0,1,986,921Zm-2.16,5.2a5.68,5.68,0,0,0-3-1.14q-5.32,0-10.09,6.54-6.28,8.5-6.28,16.44a4.13,4.13,0,0,0,.38,1.78,2.43,2.43,0,0,0,2.28,1.58c1.48,0,3.28-1.43,5.4-4.31a76.82,76.82,0,0,0,7.87-13.52c.85-1.78,1.67-3.56,2.48-5.34l.57-1.2Z" transform="translate(-4.1 -8.61)" style="fill:#3cb4bc"/>
    <path d="M999.36,945.86V947a4.2,4.2,0,0,0,.69,2.42q1.59,2.34,5.21,2.34,7.93,0,18.34-12.18c1.23-1.4,2.27-2.1,3.11-2.1a1.65,1.65,0,0,1,1.27.7,1.59,1.59,0,0,1,.38,1q0,2.48-6.09,8.38a45.84,45.84,0,0,1-10.16,7.56,21.33,21.33,0,0,1-10,2.92,9.19,9.19,0,0,1-7.49-3.31,9.66,9.66,0,0,1-1.84-6.22q0-10.73,10.1-21,8.19-8.37,14.28-8.38a4.78,4.78,0,0,1,3,1,4.27,4.27,0,0,1,1.65,3.49c0,2.24-1,5-3.11,8.25Q1012.25,942,999.36,945.86Zm1.39-5a25.6,25.6,0,0,0,7-3.43,28,28,0,0,0,7-7.74,5.27,5.27,0,0,0,1-2.73c0-.85-.4-1.27-1.2-1.27q-1.65,0-4.7,2.47Q1004.37,932.59,1000.75,940.91Z" transform="translate(-4.1 -8.61)" style="fill:#3cb4bc"/>
    <path d="M1059.21,915.9a10.25,10.25,0,0,1,5.91,1.4,4.86,4.86,0,0,1,2,4.25,11.48,11.48,0,0,1-2.79,7.24,18.48,18.48,0,0,1-8,5.33,14.6,14.6,0,0,1-4.88,1.08c-1.78,0-2.67-.78-2.67-2.35a2.61,2.61,0,0,1,1.52-2.41,43.87,43.87,0,0,1,4.32-1.08,9.67,9.67,0,0,0,4.32-2.22,4.2,4.2,0,0,0,1.71-3.18,2.42,2.42,0,0,0-.76-2,3.53,3.53,0,0,0-2.29-.63q-3.68,0-8.12,3-5.14,3.38-5.14,8,0,3.3,3.36,8.25,3.75,5.4,3.75,9.14a9.88,9.88,0,0,1-5,8.76,12.44,12.44,0,0,1-6.92,2q-6.11,0-9.27-4.38a12.34,12.34,0,0,1-2.22-7.36,13.39,13.39,0,0,1,2.54-8.32q1.65-2.22,3.42-2.22c1.06,0,1.59.42,1.59,1.27A3.56,3.56,0,0,1,1035,941a13.45,13.45,0,0,0-1.46,6.41,7.06,7.06,0,0,0,2.22,5.27,6.3,6.3,0,0,0,4.51,1.91,4.79,4.79,0,0,0,3.87-1.65,5.45,5.45,0,0,0,1.14-3.56q0-2.65-3-6.92-4.2-5.83-4.19-10.6,0-6.35,6.92-11.23A24.42,24.42,0,0,1,1059.21,915.9Z" transform="translate(-4.1 -8.61)" style="fill:#3cb4bc"/>
    <path d="M1092.29,915.9a10.21,10.21,0,0,1,5.9,1.4,4.87,4.87,0,0,1,2,4.25,11.49,11.49,0,0,1-2.8,7.24,18.44,18.44,0,0,1-8,5.33,14.7,14.7,0,0,1-4.89,1.08c-1.78,0-2.67-.78-2.67-2.35a2.61,2.61,0,0,1,1.52-2.41,43.87,43.87,0,0,1,4.32-1.08,9.62,9.62,0,0,0,4.32-2.22,4.2,4.2,0,0,0,1.71-3.18,2.42,2.42,0,0,0-.76-2,3.53,3.53,0,0,0-2.29-.63q-3.68,0-8.12,3-5.15,3.38-5.14,8,0,3.3,3.36,8.25,3.75,5.4,3.75,9.14a9.88,9.88,0,0,1-5,8.76,12.41,12.41,0,0,1-6.92,2c-4.07,0-7.15-1.46-9.27-4.38a12.34,12.34,0,0,1-2.22-7.36,13.39,13.39,0,0,1,2.54-8.32q1.65-2.22,3.42-2.22c1.06,0,1.59.42,1.59,1.27a3.56,3.56,0,0,1-.57,1.52,13.45,13.45,0,0,0-1.46,6.41,7.06,7.06,0,0,0,2.22,5.27,6.31,6.31,0,0,0,4.51,1.91,4.79,4.79,0,0,0,3.87-1.65,5.45,5.45,0,0,0,1.14-3.56q0-2.65-3-6.92-4.2-5.83-4.19-10.6,0-6.35,6.92-11.23A24.42,24.42,0,0,1,1092.29,915.9Z" transform="translate(-4.1 -8.61)" style="fill:#3cb4bc"/>
    <path d="M1101.17,945.86V947a4.13,4.13,0,0,0,.7,2.42c1.06,1.56,2.79,2.34,5.21,2.34q7.92,0,18.34-12.18c1.23-1.4,2.26-2.1,3.11-2.1a1.84,1.84,0,0,1,1.65,1.65q0,2.48-6.09,8.38a46.08,46.08,0,0,1-10.16,7.56,21.36,21.36,0,0,1-10,2.92,9.18,9.18,0,0,1-7.49-3.31,9.6,9.6,0,0,1-1.84-6.22q0-10.73,10.09-21,8.19-8.37,14.29-8.38a4.8,4.8,0,0,1,3,1,4.27,4.27,0,0,1,1.65,3.49c0,2.24-1,5-3.11,8.25Q1114.05,942,1101.17,945.86Zm1.4-5a25.6,25.6,0,0,0,7-3.43,28.2,28.2,0,0,0,7-7.74,5.37,5.37,0,0,0,1-2.73c0-.85-.4-1.27-1.21-1.27q-1.65,0-4.69,2.47Q1106.19,932.59,1102.57,940.91Z" transform="translate(-4.1 -8.61)" style="fill:#3cb4bc"/>
    <path d="M1143.45,937.17a123.09,123.09,0,0,1,14.34-13,60.22,60.22,0,0,1,6.22-4.25,6.32,6.32,0,0,1,2.1-.95c.63,0,1.27.46,1.9,1.39a2.43,2.43,0,0,1,.57,1.4c0,.76-.8,1.8-2.41,3.11q-6.47,5.14-6.47,7.74c0,1,.55,1.46,1.65,1.46q2.73,0,9.39-4.5a3.68,3.68,0,0,1,1.91-.76,1.49,1.49,0,0,1,1,.5,1.71,1.71,0,0,1,.57,1.21c0,1.27-1.77,3.22-5.33,5.84q-5.58,4.18-10.6,4.19a6.88,6.88,0,0,1-3.74-1.08,3.39,3.39,0,0,1-1.46-3.17,6.8,6.8,0,0,1,1.33-3.62q-5,3.55-11.81,12.19a88.86,88.86,0,0,0-7.81,13.14c-1,1.94-2.17,2.92-3.61,2.92s-2.35-.74-2.35-2.23,1.23-5.29,3.68-11.55q5.46-14,11.43-21.64,3.68-4.77,6.15-4.77a2.56,2.56,0,0,1,1.53.51,1.93,1.93,0,0,1,.82,1.59,5.23,5.23,0,0,1-1.27,2.67l-3.36,4.25A32.93,32.93,0,0,0,1143.45,937.17Z" transform="translate(-4.1 -8.61)" style="fill:#3cb4bc"/>
    <path d="M1194.86,917.17a102.58,102.58,0,0,0-7.61,14.35q-5,11.29-5,16.88a3.72,3.72,0,0,0,.67,2.41,2.41,2.41,0,0,0,2,.83q3.16,0,7.68-6a79,79,0,0,0,5.08-7.36c.8-1.4,1.67-2.1,2.6-2.1a1.92,1.92,0,0,1,1.4.57,1.8,1.8,0,0,1,.5,1.15q0,2.34-6.15,10.47-7.37,9.78-13.46,9.78a6.46,6.46,0,0,1-5.4-3,9.31,9.31,0,0,1-1.33-5.39q0-7.68,4.44-17.9,1.08-2.55,6-12.25a11.64,11.64,0,0,1-2.6.44,4.37,4.37,0,0,1-2.35-.63,2.62,2.62,0,0,1-1.4-2.23,2.88,2.88,0,0,1,1.84-2.54,31.67,31.67,0,0,1,4.7-.82,32.5,32.5,0,0,0,4.44-1.21,113.9,113.9,0,0,1,7.24-10.85,62.24,62.24,0,0,1,3.87-4.95,4.15,4.15,0,0,1,2.67-1.59,2.33,2.33,0,0,1,1.65.89,2.44,2.44,0,0,1,.76,1.65q0,1.65-3.55,6.54a60,60,0,0,0-3.5,5.14q7.05-1.9,10.1-1.91c2.32,0,3.49,1,3.49,2.92a2.31,2.31,0,0,1-1.21,2.16,10,10,0,0,1-3.3.64q-1.08-.06-9.58,2.41C1197.93,916.18,1196.39,916.66,1194.86,917.17Z" transform="translate(-4.1 -8.61)" style="fill:#3cb4bc"/>
    <path d="M1232.5,915.9a10.23,10.23,0,0,1,5.91,1.4,4.87,4.87,0,0,1,2,4.25,11.49,11.49,0,0,1-2.8,7.24,18.41,18.41,0,0,1-8,5.33,14.6,14.6,0,0,1-4.88,1.08c-1.78,0-2.67-.78-2.67-2.35a2.61,2.61,0,0,1,1.52-2.41,43.87,43.87,0,0,1,4.32-1.08,9.62,9.62,0,0,0,4.32-2.22,4.2,4.2,0,0,0,1.71-3.18,2.42,2.42,0,0,0-.76-2,3.53,3.53,0,0,0-2.29-.63q-3.67,0-8.12,3-5.14,3.38-5.14,8,0,3.3,3.36,8.25,3.75,5.4,3.75,9.14a9.88,9.88,0,0,1-5,8.76,12.44,12.44,0,0,1-6.92,2c-4.07,0-7.15-1.46-9.27-4.38a12.34,12.34,0,0,1-2.22-7.36,13.39,13.39,0,0,1,2.54-8.32q1.65-2.22,3.42-2.22c1.06,0,1.59.42,1.59,1.27a3.56,3.56,0,0,1-.57,1.52,13.45,13.45,0,0,0-1.46,6.41,7.06,7.06,0,0,0,2.22,5.27,6.31,6.31,0,0,0,4.51,1.91,4.79,4.79,0,0,0,3.87-1.65,5.45,5.45,0,0,0,1.14-3.56q0-2.65-3-6.92-4.2-5.83-4.19-10.6,0-6.35,6.92-11.23A24.42,24.42,0,0,1,1232.5,915.9Z" transform="translate(-4.1 -8.61)" style="fill:#3cb4bc"/>
  </g>
</svg>